<mxfile host="65bd71144e">
    <diagram name="DFD Level 1 - Simbol Lengkap" id="dfd-level-1">
        <mxGraphModel dx="3278" dy="1140" grid="1" gridSize="10" guides="1" tooltips="1" connect="1" arrows="1" fold="1" page="1" pageScale="1" pageWidth="827" pageHeight="1169" math="0" shadow="0">
            <root>
                <mxCell id="0"/>
                <mxCell id="1" parent="0"/>
                <mxCell id="119" style="edgeStyle=none;html=1;exitX=0.558;exitY=-0.009;exitDx=0;exitDy=0;exitPerimeter=0;entryX=0.008;entryY=0.396;entryDx=0;entryDy=0;entryPerimeter=0;" edge="1" parent="1" source="4" target="8">
                    <mxGeometry relative="1" as="geometry">
                        <mxPoint x="111" y="1120" as="targetPoint"/>
                        <Array as="points">
                            <mxPoint x="100" y="1080"/>
                        </Array>
                    </mxGeometry>
                </mxCell>
                <mxCell id="4" value="Anggota" style="rounded=0;whiteSpace=wrap;html=1;fillColor=#FBFF55;strokeColor=#d6b656;" parent="1" vertex="1">
                    <mxGeometry x="20" y="1660" width="150" height="80" as="geometry"/>
                </mxCell>
                <mxCell id="81" style="edgeStyle=none;html=1;entryX=0.102;entryY=0.203;entryDx=0;entryDy=0;entryPerimeter=0;exitX=0.467;exitY=0.001;exitDx=0;exitDy=0;exitPerimeter=0;" edge="1" parent="1" source="6" target="8">
                    <mxGeometry relative="1" as="geometry">
                        <mxPoint x="5" y="1079.9999999999998" as="targetPoint"/>
                        <Array as="points">
                            <mxPoint y="1040"/>
                        </Array>
                    </mxGeometry>
                </mxCell>
                <mxCell id="6" value="Admin" style="rounded=0;whiteSpace=wrap;html=1;fillColor=#FBFF55;strokeColor=#d6b656;" parent="1" vertex="1">
                    <mxGeometry x="-70" y="1410" width="150" height="80" as="geometry"/>
                </mxCell>
                <mxCell id="7" value="" style="group" parent="1" vertex="1" connectable="0">
                    <mxGeometry x="340" y="1000" width="200" height="200" as="geometry"/>
                </mxCell>
                <mxCell id="8" value="Login &amp;amp;&lt;br&gt;Hak Akses" style="ellipse;whiteSpace=wrap;html=1;aspect=fixed;fillColor=#dae8fc;strokeColor=default;" parent="7" vertex="1">
                    <mxGeometry width="200" height="200" as="geometry"/>
                </mxCell>
                <mxCell id="9" value="1" style="text;html=1;align=center;verticalAlign=middle;whiteSpace=wrap;rounded=0;" parent="7" vertex="1">
                    <mxGeometry x="62.5" y="25" width="75" height="37.5" as="geometry"/>
                </mxCell>
                <mxCell id="10" value="" style="group" parent="1" vertex="1" connectable="0">
                    <mxGeometry x="-700" y="1733" width="160" height="160" as="geometry"/>
                </mxCell>
                <mxCell id="11" value="Kelola&amp;nbsp;&lt;br&gt;Data Buku" style="ellipse;whiteSpace=wrap;html=1;aspect=fixed;fillColor=#dae8fc;strokeColor=default;" parent="10" vertex="1">
                    <mxGeometry width="160" height="160" as="geometry"/>
                </mxCell>
                <mxCell id="12" value="2" style="text;html=1;align=center;verticalAlign=middle;whiteSpace=wrap;rounded=0;" parent="10" vertex="1">
                    <mxGeometry x="50" y="30" width="60" height="30" as="geometry"/>
                </mxCell>
                <mxCell id="13" value="" style="group" parent="1" vertex="1" connectable="0">
                    <mxGeometry x="-700" y="2013" width="160" height="160" as="geometry"/>
                </mxCell>
                <mxCell id="14" value="3" style="text;html=1;align=center;verticalAlign=middle;whiteSpace=wrap;rounded=0;" parent="13" vertex="1">
                    <mxGeometry x="50" y="30" width="60" height="30" as="geometry"/>
                </mxCell>
                <mxCell id="15" value="" style="group" parent="1" vertex="1" connectable="0">
                    <mxGeometry x="-700" y="2183" width="160" height="160" as="geometry"/>
                </mxCell>
                <mxCell id="16" value="Pengembalian&lt;br&gt;Buku" style="ellipse;whiteSpace=wrap;html=1;aspect=fixed;fillColor=#dae8fc;strokeColor=default;" parent="15" vertex="1">
                    <mxGeometry width="160" height="160" as="geometry"/>
                </mxCell>
                <mxCell id="17" value="4" style="text;html=1;align=center;verticalAlign=middle;whiteSpace=wrap;rounded=0;" parent="15" vertex="1">
                    <mxGeometry x="50" y="23" width="60" height="30" as="geometry"/>
                </mxCell>
                <mxCell id="18" value="" style="group" parent="1" vertex="1" connectable="0">
                    <mxGeometry x="-700" y="2523" width="160" height="160" as="geometry"/>
                </mxCell>
                <mxCell id="19" value="Monitoring Keterlambatan &amp;amp; Status Buku" style="ellipse;whiteSpace=wrap;html=1;aspect=fixed;fillColor=#dae8fc;strokeColor=default;" parent="18" vertex="1">
                    <mxGeometry width="160" height="160" as="geometry"/>
                </mxCell>
                <mxCell id="20" value="5" style="text;html=1;align=center;verticalAlign=middle;whiteSpace=wrap;rounded=0;" parent="18" vertex="1">
                    <mxGeometry x="50" y="30" width="60" height="30" as="geometry"/>
                </mxCell>
                <mxCell id="26" value="" style="group" parent="1" vertex="1" connectable="0">
                    <mxGeometry x="-700" y="1953" width="160" height="160" as="geometry"/>
                </mxCell>
                <mxCell id="27" value="Ajukan Permintaan Peminjaman Buku" style="ellipse;whiteSpace=wrap;html=1;aspect=fixed;fillColor=#dae8fc;strokeColor=default;" parent="26" vertex="1">
                    <mxGeometry width="160" height="160" as="geometry"/>
                </mxCell>
                <mxCell id="28" value="3" style="text;html=1;align=center;verticalAlign=middle;whiteSpace=wrap;rounded=0;" parent="26" vertex="1">
                    <mxGeometry x="50" y="30" width="60" height="30" as="geometry"/>
                </mxCell>
                <mxCell id="29" value="DFD lvl 1" style="text;html=1;align=center;verticalAlign=middle;whiteSpace=wrap;rounded=0;" parent="1" vertex="1">
                    <mxGeometry x="-260" y="820" width="60" height="30" as="geometry"/>
                </mxCell>
                <mxCell id="30" value="" style="group" parent="1" vertex="1" connectable="0">
                    <mxGeometry x="-700" y="2763" width="160" height="160" as="geometry"/>
                </mxCell>
                <mxCell id="31" value="Akses Katalog Buku" style="ellipse;whiteSpace=wrap;html=1;aspect=fixed;fillColor=#dae8fc;strokeColor=default;" parent="30" vertex="1">
                    <mxGeometry width="160" height="160" as="geometry"/>
                </mxCell>
                <mxCell id="32" value="6" style="text;html=1;align=center;verticalAlign=middle;whiteSpace=wrap;rounded=0;" parent="30" vertex="1">
                    <mxGeometry x="50" y="30" width="60" height="30" as="geometry"/>
                </mxCell>
                <mxCell id="39" value="" style="group" parent="1" vertex="1" connectable="0">
                    <mxGeometry x="-350" y="170" width="1320" height="520" as="geometry"/>
                </mxCell>
                <mxCell id="40" value="" style="rounded=0;whiteSpace=wrap;html=1;strokeColor=none;" parent="39" vertex="1">
                    <mxGeometry width="1320" height="520" as="geometry"/>
                </mxCell>
                <mxCell id="41" value="&amp;nbsp;Login Anggota" style="text;html=1;align=center;verticalAlign=middle;whiteSpace=wrap;rounded=0;" parent="39" vertex="1">
                    <mxGeometry x="150" y="160" width="160" height="30" as="geometry"/>
                </mxCell>
                <mxCell id="42" value="Sistem Informasi Peminjaman &amp;amp; Pengelolaan Buku UKM Persma" style="ellipse;whiteSpace=wrap;html=1;aspect=fixed;fillColor=#dae8fc;strokeColor=default;" parent="39" vertex="1">
                    <mxGeometry x="540" y="180" width="170" height="170" as="geometry"/>
                </mxCell>
                <mxCell id="43" value="0" style="text;html=1;align=center;verticalAlign=middle;whiteSpace=wrap;rounded=0;" parent="39" vertex="1">
                    <mxGeometry x="594" y="220" width="60" height="30" as="geometry"/>
                </mxCell>
                <mxCell id="44" value="Anggota" style="rounded=0;whiteSpace=wrap;html=1;fillColor=#FBFF55;strokeColor=#d6b656;" parent="39" vertex="1">
                    <mxGeometry x="10" y="250" width="150" height="80" as="geometry"/>
                </mxCell>
                <mxCell id="45" value="Admin" style="rounded=0;whiteSpace=wrap;html=1;fillColor=#FBFF55;strokeColor=#d6b656;" parent="39" vertex="1">
                    <mxGeometry x="1110" y="235" width="150" height="80" as="geometry"/>
                </mxCell>
                <mxCell id="46" value="" style="endArrow=classic;html=1;exitX=0.107;exitY=0.019;exitDx=0;exitDy=0;exitPerimeter=0;entryX=0.259;entryY=0.062;entryDx=0;entryDy=0;entryPerimeter=0;" parent="39" source="44" target="42" edge="1">
                    <mxGeometry width="50" height="50" relative="1" as="geometry">
                        <mxPoint x="130" y="250" as="sourcePoint"/>
                        <mxPoint x="580" y="190" as="targetPoint"/>
                        <Array as="points">
                            <mxPoint x="26" y="190"/>
                        </Array>
                    </mxGeometry>
                </mxCell>
                <mxCell id="47" value="Lihat Katalog Buku" style="text;html=1;align=center;verticalAlign=middle;whiteSpace=wrap;rounded=0;" parent="39" vertex="1">
                    <mxGeometry x="171" y="195" width="140" height="30" as="geometry"/>
                </mxCell>
                <mxCell id="48" value="Permintaan peminjaman" style="text;html=1;align=center;verticalAlign=middle;whiteSpace=wrap;rounded=0;" parent="39" vertex="1">
                    <mxGeometry x="180" y="240" width="160" height="30" as="geometry"/>
                </mxCell>
                <mxCell id="49" value="Daftar Buku" style="text;html=1;align=center;verticalAlign=middle;whiteSpace=wrap;rounded=0;" parent="39" vertex="1">
                    <mxGeometry x="382" y="386" width="160" height="30" as="geometry"/>
                </mxCell>
                <mxCell id="50" value="" style="endArrow=classic;html=1;exitX=0.003;exitY=0.35;exitDx=0;exitDy=0;exitPerimeter=0;entryX=0.987;entryY=0.479;entryDx=0;entryDy=0;entryPerimeter=0;" parent="39" source="45" target="42" edge="1">
                    <mxGeometry width="50" height="50" relative="1" as="geometry">
                        <mxPoint x="1123.74" y="265" as="sourcePoint"/>
                        <mxPoint x="720.0000000000002" y="261.53999999999996" as="targetPoint"/>
                    </mxGeometry>
                </mxCell>
                <mxCell id="51" value="Input Data Buku" style="text;html=1;align=center;verticalAlign=middle;whiteSpace=wrap;rounded=0;" parent="39" vertex="1">
                    <mxGeometry x="960" y="233" width="160" height="30" as="geometry"/>
                </mxCell>
                <mxCell id="52" value="Input Pengembalian buku" style="text;html=1;align=center;verticalAlign=middle;whiteSpace=wrap;rounded=0;" parent="39" vertex="1">
                    <mxGeometry x="950" y="195" width="140" height="30" as="geometry"/>
                </mxCell>
                <mxCell id="53" value="Permintaan Monitoring" style="text;html=1;align=center;verticalAlign=middle;whiteSpace=wrap;rounded=0;" parent="39" vertex="1">
                    <mxGeometry x="950" y="161" width="160" height="30" as="geometry"/>
                </mxCell>
                <mxCell id="54" value="Laporan Monitoring" style="text;html=1;align=center;verticalAlign=middle;whiteSpace=wrap;rounded=0;" parent="39" vertex="1">
                    <mxGeometry x="686" y="361" width="160" height="30" as="geometry"/>
                </mxCell>
                <mxCell id="55" value="Status Pengembalian" style="text;html=1;align=center;verticalAlign=middle;whiteSpace=wrap;rounded=0;" parent="39" vertex="1">
                    <mxGeometry x="691" y="395" width="160" height="30" as="geometry"/>
                </mxCell>
                <mxCell id="56" value="Status Input buku" style="text;html=1;align=center;verticalAlign=middle;whiteSpace=wrap;rounded=0;" parent="39" vertex="1">
                    <mxGeometry x="679" y="423" width="160" height="30" as="geometry"/>
                </mxCell>
                <mxCell id="57" value="DFD lvl 0" style="text;html=1;align=center;verticalAlign=middle;whiteSpace=wrap;rounded=0;" parent="39" vertex="1">
                    <mxGeometry x="10" y="30" width="60" height="30" as="geometry"/>
                </mxCell>
                <mxCell id="58" value="" style="endArrow=classic;html=1;entryX=0.066;entryY=0.248;entryDx=0;entryDy=0;entryPerimeter=0;" parent="39" source="44" target="42" edge="1">
                    <mxGeometry width="50" height="50" relative="1" as="geometry">
                        <mxPoint x="84" y="250" as="sourcePoint"/>
                        <mxPoint x="550" y="220" as="targetPoint"/>
                        <Array as="points">
                            <mxPoint x="85" y="222"/>
                        </Array>
                    </mxGeometry>
                </mxCell>
                <mxCell id="59" value="" style="endArrow=classic;html=1;exitX=0.03;exitY=0.684;exitDx=0;exitDy=0;exitPerimeter=0;entryX=0;entryY=0.5;entryDx=0;entryDy=0;" parent="39" target="42" edge="1">
                    <mxGeometry width="50" height="50" relative="1" as="geometry">
                        <mxPoint x="160" y="266" as="sourcePoint"/>
                        <mxPoint x="547" y="263" as="targetPoint"/>
                    </mxGeometry>
                </mxCell>
                <mxCell id="60" value="" style="endArrow=classic;html=1;exitX=0.272;exitY=0.945;exitDx=0;exitDy=0;exitPerimeter=0;" parent="39" source="42" edge="1">
                    <mxGeometry width="50" height="50" relative="1" as="geometry">
                        <mxPoint x="620" y="350" as="sourcePoint"/>
                        <mxPoint x="110" y="330" as="targetPoint"/>
                        <Array as="points">
                            <mxPoint x="586" y="410"/>
                            <mxPoint x="110" y="410"/>
                        </Array>
                    </mxGeometry>
                </mxCell>
                <mxCell id="61" value="" style="endArrow=classic;html=1;entryX=0.745;entryY=0.058;entryDx=0;entryDy=0;entryPerimeter=0;exitX=0.76;exitY=0.01;exitDx=0;exitDy=0;exitPerimeter=0;" parent="39" source="45" target="42" edge="1">
                    <mxGeometry width="50" height="50" relative="1" as="geometry">
                        <mxPoint x="1224" y="230" as="sourcePoint"/>
                        <mxPoint x="666" y="191.00000000000045" as="targetPoint"/>
                        <Array as="points">
                            <mxPoint x="1224" y="190.00000000000045"/>
                        </Array>
                    </mxGeometry>
                </mxCell>
                <mxCell id="62" value="" style="endArrow=classic;html=1;entryX=0.926;entryY=0.237;entryDx=0;entryDy=0;entryPerimeter=0;exitX=0.467;exitY=0.009;exitDx=0;exitDy=0;exitPerimeter=0;" parent="39" source="45" target="42" edge="1">
                    <mxGeometry width="50" height="50" relative="1" as="geometry">
                        <mxPoint x="1234" y="266" as="sourcePoint"/>
                        <mxPoint x="677" y="220" as="targetPoint"/>
                        <Array as="points">
                            <mxPoint x="1180" y="220"/>
                        </Array>
                    </mxGeometry>
                </mxCell>
                <mxCell id="63" value="" style="endArrow=classic;html=1;exitX=0.41;exitY=1.003;exitDx=0;exitDy=0;exitPerimeter=0;entryX=0.524;entryY=1;entryDx=0;entryDy=0;entryPerimeter=0;" parent="39" target="45" edge="1">
                    <mxGeometry width="50" height="50" relative="1" as="geometry">
                        <mxPoint x="640" y="349" as="sourcePoint"/>
                        <mxPoint x="1250" y="320" as="targetPoint"/>
                        <Array as="points">
                            <mxPoint x="640" y="450"/>
                            <mxPoint x="1190" y="450"/>
                        </Array>
                    </mxGeometry>
                </mxCell>
                <mxCell id="64" value="" style="endArrow=classic;html=1;exitX=0.41;exitY=1.003;exitDx=0;exitDy=0;exitPerimeter=0;entryX=0.387;entryY=0.979;entryDx=0;entryDy=0;entryPerimeter=0;" parent="39" target="45" edge="1">
                    <mxGeometry width="50" height="50" relative="1" as="geometry">
                        <mxPoint x="655" y="345" as="sourcePoint"/>
                        <mxPoint x="1210" y="320" as="targetPoint"/>
                        <Array as="points">
                            <mxPoint x="655" y="420"/>
                            <mxPoint x="1168" y="420"/>
                        </Array>
                    </mxGeometry>
                </mxCell>
                <mxCell id="65" value="" style="endArrow=classic;html=1;exitX=0.41;exitY=1.003;exitDx=0;exitDy=0;exitPerimeter=0;entryX=0.198;entryY=1.008;entryDx=0;entryDy=0;entryPerimeter=0;" parent="39" target="45" edge="1">
                    <mxGeometry width="50" height="50" relative="1" as="geometry">
                        <mxPoint x="675" y="331" as="sourcePoint"/>
                        <mxPoint x="1229" y="301" as="targetPoint"/>
                        <Array as="points">
                            <mxPoint x="675" y="390"/>
                            <mxPoint x="980" y="390"/>
                            <mxPoint x="1140" y="390"/>
                            <mxPoint x="1140" y="360"/>
                        </Array>
                    </mxGeometry>
                </mxCell>
                <mxCell id="66" value="" style="endArrow=classic;html=1;exitX=0.349;exitY=0.965;exitDx=0;exitDy=0;exitPerimeter=0;entryX=0.519;entryY=1.01;entryDx=0;entryDy=0;entryPerimeter=0;" parent="39" source="42" target="44" edge="1">
                    <mxGeometry width="50" height="50" relative="1" as="geometry">
                        <mxPoint x="599" y="347" as="sourcePoint"/>
                        <mxPoint x="123" y="336" as="targetPoint"/>
                        <Array as="points">
                            <mxPoint x="599" y="430"/>
                            <mxPoint x="90" y="430"/>
                        </Array>
                    </mxGeometry>
                </mxCell>
                <mxCell id="67" value="Status Login Anggota" style="text;html=1;align=center;verticalAlign=middle;whiteSpace=wrap;rounded=0;" parent="39" vertex="1">
                    <mxGeometry x="360" y="406" width="160" height="30" as="geometry"/>
                </mxCell>
                <mxCell id="68" value="" style="endArrow=classic;html=1;exitX=-0.001;exitY=0.832;exitDx=0;exitDy=0;exitPerimeter=0;entryX=0.952;entryY=0.709;entryDx=0;entryDy=0;entryPerimeter=0;" parent="39" source="45" target="42" edge="1">
                    <mxGeometry width="50" height="50" relative="1" as="geometry">
                        <mxPoint x="1112" y="302" as="sourcePoint"/>
                        <mxPoint x="710" y="300" as="targetPoint"/>
                    </mxGeometry>
                </mxCell>
                <mxCell id="69" value="&amp;nbsp;Login Admin" style="text;html=1;align=center;verticalAlign=middle;whiteSpace=wrap;rounded=0;" parent="39" vertex="1">
                    <mxGeometry x="960" y="275" width="160" height="30" as="geometry"/>
                </mxCell>
                <mxCell id="70" value="" style="endArrow=classic;html=1;exitX=0.41;exitY=1.003;exitDx=0;exitDy=0;exitPerimeter=0;entryX=0.708;entryY=1.02;entryDx=0;entryDy=0;entryPerimeter=0;" parent="39" target="45" edge="1">
                    <mxGeometry width="50" height="50" relative="1" as="geometry">
                        <mxPoint x="625" y="349" as="sourcePoint"/>
                        <mxPoint x="1174" y="315" as="targetPoint"/>
                        <Array as="points">
                            <mxPoint x="625" y="480"/>
                            <mxPoint x="1220" y="480"/>
                        </Array>
                    </mxGeometry>
                </mxCell>
                <mxCell id="71" value="Status Login Admin" style="text;html=1;align=center;verticalAlign=middle;whiteSpace=wrap;rounded=0;" parent="39" vertex="1">
                    <mxGeometry x="680" y="451" width="160" height="30" as="geometry"/>
                </mxCell>
                <mxCell id="72" value="" style="endArrow=classic;html=1;entryX=0.841;entryY=1.015;entryDx=0;entryDy=0;entryPerimeter=0;" parent="39" target="44" edge="1">
                    <mxGeometry width="50" height="50" relative="1" as="geometry">
                        <mxPoint x="570" y="330" as="sourcePoint"/>
                        <mxPoint x="94" y="305" as="targetPoint"/>
                        <Array as="points">
                            <mxPoint x="570" y="385"/>
                            <mxPoint x="136" y="385"/>
                        </Array>
                    </mxGeometry>
                </mxCell>
                <mxCell id="73" value="Konfirmasi Permintaan" style="text;html=1;align=center;verticalAlign=middle;whiteSpace=wrap;rounded=0;" parent="39" vertex="1">
                    <mxGeometry x="360" y="356" width="160" height="30" as="geometry"/>
                </mxCell>
                <mxCell id="74" value="Data User" style="html=1;dashed=0;whiteSpace=wrap;shape=partialRectangle;right=0;left=0;movable=1;resizable=1;rotatable=1;deletable=1;editable=1;locked=0;connectable=1;" vertex="1" parent="1">
                    <mxGeometry x="803.33" y="1010" width="166.67" height="50" as="geometry"/>
                </mxCell>
                <mxCell id="75" value="Data Jabatan" style="html=1;dashed=0;whiteSpace=wrap;shape=partialRectangle;right=0;left=0;movable=1;resizable=1;rotatable=1;deletable=1;editable=1;locked=0;connectable=1;" vertex="1" parent="1">
                    <mxGeometry x="760" y="1210" width="166.67" height="50" as="geometry"/>
                </mxCell>
                <mxCell id="76" value="Data Buku" style="html=1;dashed=0;whiteSpace=wrap;shape=partialRectangle;right=0;left=0;movable=1;resizable=1;rotatable=1;deletable=1;editable=1;locked=0;connectable=1;" vertex="1" parent="1">
                    <mxGeometry x="1130" y="830" width="100" height="30" as="geometry"/>
                </mxCell>
                <mxCell id="77" value="Data Peminjaman" style="html=1;dashed=0;whiteSpace=wrap;shape=partialRectangle;right=0;left=0;movable=1;resizable=1;rotatable=1;deletable=1;editable=1;locked=0;connectable=1;" vertex="1" parent="1">
                    <mxGeometry x="1130" y="880" width="100" height="30" as="geometry"/>
                </mxCell>
                <mxCell id="78" value="Data Pengembalian" style="html=1;dashed=0;whiteSpace=wrap;shape=partialRectangle;right=0;left=0;movable=1;resizable=1;rotatable=1;deletable=1;editable=1;locked=0;connectable=1;" vertex="1" parent="1">
                    <mxGeometry x="1130" y="930" width="100" height="30" as="geometry"/>
                </mxCell>
                <mxCell id="118" value="Login Admin" style="text;html=1;align=center;verticalAlign=middle;whiteSpace=wrap;rounded=0;movable=1;resizable=1;rotatable=1;deletable=1;editable=1;locked=0;connectable=1;" vertex="1" parent="1">
                    <mxGeometry x="15" y="1010" width="160" height="30" as="geometry"/>
                </mxCell>
                <mxCell id="120" value="Login Anggota" style="text;html=1;align=center;verticalAlign=middle;whiteSpace=wrap;rounded=0;movable=1;resizable=1;rotatable=1;deletable=1;editable=1;locked=0;connectable=1;" vertex="1" parent="1">
                    <mxGeometry x="80" y="1050" width="160" height="30" as="geometry"/>
                </mxCell>
                <mxCell id="121" style="edgeStyle=none;html=1;entryX=0.003;entryY=0.611;entryDx=0;entryDy=0;entryPerimeter=0;" edge="1" parent="1" target="6">
                    <mxGeometry relative="1" as="geometry">
                        <mxPoint x="-96" y="1570" as="targetPoint"/>
                        <mxPoint x="430" y="1000" as="sourcePoint"/>
                        <Array as="points">
                            <mxPoint x="430" y="990"/>
                            <mxPoint x="-100" y="991"/>
                            <mxPoint x="-100" y="1460"/>
                        </Array>
                    </mxGeometry>
                </mxCell>
                <mxCell id="123" value="Status Login Admin" style="text;html=1;align=center;verticalAlign=middle;whiteSpace=wrap;rounded=0;movable=1;resizable=1;rotatable=1;deletable=1;editable=1;locked=0;connectable=1;" vertex="1" parent="1">
                    <mxGeometry x="170" y="960" width="160" height="30" as="geometry"/>
                </mxCell>
                <mxCell id="124" style="edgeStyle=none;html=1;entryX=0;entryY=0.25;entryDx=0;entryDy=0;" edge="1" parent="1" target="4">
                    <mxGeometry relative="1" as="geometry">
                        <mxPoint x="-70" y="1550" as="targetPoint"/>
                        <mxPoint x="450" y="1000" as="sourcePoint"/>
                        <Array as="points">
                            <mxPoint x="450" y="960"/>
                            <mxPoint x="-140" y="960"/>
                            <mxPoint x="-140" y="1680"/>
                        </Array>
                    </mxGeometry>
                </mxCell>
                <mxCell id="125" value="Status Login Anggota" style="text;html=1;align=center;verticalAlign=middle;whiteSpace=wrap;rounded=0;movable=1;resizable=1;rotatable=1;deletable=1;editable=1;locked=0;connectable=1;" vertex="1" parent="1">
                    <mxGeometry x="-140" y="1650" width="160" height="30" as="geometry"/>
                </mxCell>
                <mxCell id="128" style="edgeStyle=none;html=1;exitX=0.185;exitY=0.977;exitDx=0;exitDy=0;exitPerimeter=0;entryX=0.992;entryY=0.609;entryDx=0;entryDy=0;entryPerimeter=0;" edge="1" parent="1" source="74" target="8">
                    <mxGeometry relative="1" as="geometry">
                        <mxPoint x="550" y="1120" as="targetPoint"/>
                        <Array as="points">
                            <mxPoint x="835" y="1120"/>
                        </Array>
                    </mxGeometry>
                </mxCell>
                <mxCell id="129" value="Validasi_User" style="text;html=1;align=center;verticalAlign=middle;whiteSpace=wrap;rounded=0;movable=1;resizable=1;rotatable=1;deletable=1;editable=1;locked=0;connectable=1;" vertex="1" parent="1">
                    <mxGeometry x="590" y="1090" width="160" height="30" as="geometry"/>
                </mxCell>
                <mxCell id="131" style="edgeStyle=none;html=1;exitX=0;exitY=0.659;exitDx=0;exitDy=0;exitPerimeter=0;" edge="1" parent="1" source="75">
                    <mxGeometry relative="1" as="geometry">
                        <mxPoint x="730" y="1240" as="sourcePoint"/>
                        <mxPoint x="450" y="1200" as="targetPoint"/>
                        <Array as="points">
                            <mxPoint x="450" y="1240"/>
                        </Array>
                    </mxGeometry>
                </mxCell>
                <mxCell id="133" value="Ambil_Hak_Akses" style="text;html=1;align=center;verticalAlign=middle;whiteSpace=wrap;rounded=0;movable=1;resizable=1;rotatable=1;deletable=1;editable=1;locked=0;connectable=1;" vertex="1" parent="1">
                    <mxGeometry x="600" y="1213" width="160" height="30" as="geometry"/>
                </mxCell>
            </root>
        </mxGraphModel>
    </diagram>
</mxfile>